# xmcd
#
# Track frame offsets: 
#        150
#        17034
#        33398
#        55325
#        73880
#        90487
#        120272
#        140381
#        155593
#        172687
#        186385
#
# Disc length: 2813 seconds
#
# Revision: 0
# Processed by: cddbd v1.5.2PL0 Copyright (c) Steve Scherf et al.
# Submitted via: ExactAudioCopyFreeDBPlugin 1.0
#
DISCID=8c0afb0b
DTITLE=Joanne Shaw Taylor - Reckless Heart
DYEAR=2019
DGENRE=Blues
TTITLE0=In The Mood
TTITLE1=All My Love
TTITLE2=The Best Thing
TTITLE3=Bad Love
TTITLE4=Creepin'
TTITLE5=I've Been Loving You Too Long
TTITLE6=Reckless Heart
TTITLE7=Break My Heart Anyway
TTITLE8=New 89
TTITLE9=Jake's Boogie
TTITLE10=I'm Only Lonely
EXTD=
EXTT0=
EXTT1=
EXTT2=
EXTT3=
EXTT4=
EXTT5=
EXTT6=
EXTT7=
EXTT8=
EXTT9=
EXTT10=
PLAYORDER=
